<?xml version="1.0" encoding="UTF-8" standalone="no"?>
<!-- Created with Inkscape (http://www.inkscape.org/) -->

<svg
   xmlns:dc="http://purl.org/dc/elements/1.1/"
   xmlns:cc="http://creativecommons.org/ns#"
   xmlns:rdf="http://www.w3.org/1999/02/22-rdf-syntax-ns#"
   xmlns:svg="http://www.w3.org/2000/svg"
   xmlns="http://www.w3.org/2000/svg"
   xmlns:sodipodi="http://sodipodi.sourceforge.net/DTD/sodipodi-0.dtd"
   xmlns:inkscape="http://www.inkscape.org/namespaces/inkscape"
   width="48"
   height="48"
   viewBox="0 0 12.7 12.7"
   version="1.1"
   id="svg8"
   sodipodi:docname="replica_icon.svg"
   inkscape:version="0.92.3 (2405546, 2018-03-11)"
   inkscape:export-filename="/home/llorenc/Documentos/GitHub/replica/resources/public/imgs/icon.png"
   inkscape:export-xdpi="96"
   inkscape:export-ydpi="96">
  <defs
     id="defs2" />
  <sodipodi:namedview
     id="base"
     pagecolor="#0e0325"
     bordercolor="#666666"
     borderopacity="1.0"
     inkscape:pageopacity="0"
     inkscape:pageshadow="2"
     inkscape:zoom="1.979899"
     inkscape:cx="-71.743765"
     inkscape:cy="33.726012"
     inkscape:document-units="mm"
     inkscape:current-layer="layer1"
     showgrid="false"
     units="px"
     inkscape:window-width="1600"
     inkscape:window-height="833"
     inkscape:window-x="0"
     inkscape:window-y="0"
     inkscape:window-maximized="1"
     inkscape:pagecheckerboard="false"
     fit-margin-top="0"
     fit-margin-left="0"
     fit-margin-right="0"
     fit-margin-bottom="0" />
  <metadata
     id="metadata5">
    <rdf:RDF>
      <cc:Work
         rdf:about="">
        <dc:format>image/svg+xml</dc:format>
        <dc:type
           rdf:resource="http://purl.org/dc/dcmitype/StillImage" />
        <dc:title></dc:title>
      </cc:Work>
    </rdf:RDF>
  </metadata>
  <g
     inkscape:label="Capa 1"
     inkscape:groupmode="layer"
     id="layer1"
     transform="translate(-52.260219,-225.34782)">
    <rect
       style="fill:#0e0325;fill-opacity:1;stroke:none;stroke-width:0.3212615;stroke-opacity:1"
       id="rect5460"
       width="23.653353"
       height="19.377041"
       x="48.924049"
       y="220.54166"
       inkscape:export-xdpi="96"
       inkscape:export-ydpi="96" />
    <g
       id="g3765"
       class="companyName211e870a-00a5-4c70-bf0d-71280d50c85b"
       transform="matrix(0.26940161,0,0,0.26940161,57.384646,238.04782)"
       style="fill:#e492f5;fill-opacity:1;stroke:none;stroke-opacity:1">
      <path
         id="path3763"
         d="m 28.12,0 h -6.96 l -5.4,-7.8 H 15.44 9.8 V 0 H 3.32 v -28 h 12.12 c 2.48,0 4.633333,0.413333 6.46,1.24 1.826667,0.826667 3.233333,2 4.22,3.52 0.986667,1.52 1.48,3.32 1.48,5.4 v 0 c 0,2.08 -0.5,3.873333 -1.5,5.38 -1,1.506667 -2.42,2.66 -4.26,3.46 v 0 z m -7.08,-17.84 c 0,-1.573333 -0.506667,-2.78 -1.52,-3.62 -1.013333,-0.84 -2.493333,-1.26 -4.44,-1.26 v 0 H 9.8 v 9.76 h 5.28 c 1.946667,0 3.426667,-0.426667 4.44,-1.28 1.013333,-0.853333 1.52,-2.053333 1.52,-3.6 z"
         inkscape:connector-curvature="0"
         style="fill:#e492f5;fill-opacity:1;stroke:none;stroke-opacity:1"
         sodipodi:nodetypes="ccccccccsssccscccssccccsss" />
    </g>
    <g
       id="g3916"
       class="icon1211e870a-00a5-4c70-bf0d-71280d50c85b"
       transform="matrix(-0.01127952,0.15671079,0.15671079,0.01127952,45.439422,220.34693)"
       style="fill:#e492f5;fill-opacity:1;stroke:none;stroke-opacity:1">
      <g
         id="g3914"
         style="fill:#e492f5;fill-opacity:1;stroke:none;stroke-opacity:1">
        <path
           id="path3912"
           d="m 12.1,63.191 c -5.638,-1.821 7.766,-2.922 10.081,-2.777 0,0 2.291,0.234 3.055,0.293 0.764,0.059 2.136,0.44 0.374,1.204 -1.762,0.764 -4.339,1.469 -5.886,2.666 -3.748,2.902 -8.126,3.438 -10.386,3.465 -1.895,0.022 -3.216,-0.275 -4.919,0.078 -1.703,0.353 -1.856,-0.012 -3.266,-0.481 0,0 1.938,1.292 3.348,1.058 1.409,-0.237 1.409,-0.248 1.409,-0.248 0,0 -0.176,0.481 -1.115,0.774 -0.94,0.295 -1.911,0.484 -3.162,0.671 0,0 2.633,0.187 5.041,-0.905 0.651,-0.295 4.288,-0.117 5.874,-0.059 1.586,0.058 2.878,-0.411 3.936,-0.705 1.058,-0.293 3.407,-1.374 4.816,-2.255 1.41,-0.881 3.113,-1.621 5.228,-2.268 2.115,-0.646 3.534,-1.805 5.767,-1.451 2.232,0.352 6.334,1.921 8.859,1.861 2.526,-0.058 4.758,-0.117 6.461,0.529 1.703,0.646 4.111,1.116 3.818,1.469 -0.294,0.353 -1.234,0.881 -2.232,1.821 -0.999,0.939 -2.819,1.586 -4.464,1.82 -1.645,0.234 -4.817,0.881 -6.344,1.527 -1.526,0.646 -4.252,2.414 -6.285,3.348 -4.924,2.261 -6.275,0.146 -8.331,-0.089 0,0 3.515,3.319 10.034,0.441 6.521,-2.878 9.691,-3.349 10.809,-3.406 1.115,-0.06 2.114,-0.353 2.701,-0.882 0.336,-0.301 -0.094,0.333 -0.589,0.998 -0.374,0.503 -0.634,1.142 -0.785,1.293 -0.134,0.134 -0.613,0.437 -1.128,0.894 -0.844,0.751 -2.193,1.602 -4.018,1.457 0,0 2.825,0.563 4.641,-0.765 0.785,-0.574 1.554,-1.247 2.3,-1.938 0.534,-0.494 1.241,-0.658 1.75,-1.146 0.468,-0.446 0.738,-1.219 1.183,-1.616 0.782,-0.699 1.527,-1.285 2.227,-1.643 2.477,-1.264 7.159,-0.848 11.277,0.764 1.352,0.529 6.295,3.835 9.114,5.362 2.819,1.527 3.631,3.803 4.935,4.699 1.879,1.292 3.876,1.351 4.698,2.466 0.822,1.117 2.398,5.388 0.343,7.503 -2.056,2.114 -5.814,3.817 -6.813,4.757 -0.998,0.939 -1.233,1.527 -3.289,1.645 -2.056,0.118 -3.876,0.822 -2.819,1.469 1.057,0.646 9.584,0.311 11.464,0.252 1.879,-0.059 10.161,0.176 11.16,0.176 0.998,0 2.28,0.512 1.693,-0.545 -0.587,-1.059 -1.409,-0.822 -1.763,-3.643 -0.352,-2.819 0.059,-9.633 -2.878,-13.392 -2.938,-3.76 -6.226,-8.341 -0.705,-7.519 1.209,0.18 2.035,0.746 3.605,0.84 0.71,0.042 2.32,-0.31 3.054,-0.294 2.879,-0.059 5.404,-2.231 3.465,-1.351 -4.616,2.098 -9.275,0.431 -10.183,-0.628 0,0 1.701,-2.494 1.255,-3.66 -0.46,-1.205 -0.998,0.411 -0.998,0.411 0,0 -1.314,-0.425 -1.057,-0.177 0.677,0.654 2.208,1.765 -0.21,2.415 -1.635,0.44 -4.407,-0.03 -5.288,3.024 -0.336,1.162 -3.065,-1.169 -5.414,-1.756 -2.35,-0.587 -3.677,-3.348 -2.737,-6.285 0.939,-2.936 4.923,-5.896 6.919,-5.192 1.998,0.705 1.774,2.525 1.305,3.584 -0.471,1.057 2.007,-2.181 0.234,-3.501 0,0 1.175,0 1.997,-0.705 0.822,-0.705 2.606,-0.834 2.489,-1.656 0,0 -1.968,1.203 -3.73,1.408 -3.506,0.41 -3.555,-1.286 -6.644,1.028 0.407,-1.818 0.32,-3.491 0.103,-4.945 -0.105,-0.695 0.024,-1.398 -0.188,-1.988 -0.166,-0.46 -0.526,-0.827 -0.747,-1.214 -1.153,-2.031 -2.977,-3.005 -4.698,-2.401 0,0 4.302,-0.438 4.999,4.999 0.509,3.973 -0.867,5.459 -2.08,7.213 -0.321,0.465 -0.872,0.896 -1.34,1.453 -0.288,0.34 -0.411,0.904 -0.666,1.304 -0.288,0.451 -0.616,0.828 -0.773,1.38 -0.236,0.828 -0.271,1.785 0.058,2.917 0,0 -2.289,-2.496 -5.344,-3.112 -3.054,-0.617 -7.107,-1.284 -8.061,-1.363 -4.601,-0.383 -8.849,-2.995 -8.996,-6.548 -0.147,-3.555 1.551,-5.963 3.254,-6.902 1.703,-0.94 2.938,-1.321 3.289,-1.38 0.354,-0.06 -2.76,-0.206 -4.934,1.556 -2.173,1.762 -2.526,4.224 -2.555,4.987 0,0 -1.226,-3.827 -3.837,-5.176 -3.075,-1.587 -5.063,-1.367 -5.708,-1.016 0,0 7.354,-1.257 8.764,8.2 0,0 -0.294,0.317 -1.233,0.173 -0.783,-0.121 -1.431,0.145 0.127,0.572 1.118,0.308 1.953,0.402 2.47,2.673 0,0 -2.011,-0.218 -3.773,0.193 -2.758,0.644 -14.567,-0.881 -16.682,-2.631 -1.576,-1.306 -2.702,-4.041 -1.116,-5.217 0,0 -2.584,-0.129 -0.763,4.981 0,0 -1.067,0.465 -3.711,-0.123 -2.643,-0.587 -5.601,1.064 -7.145,1.122 -2.271,0.084 -5.756,0.117 -6.461,-2.115 C 8.929,55.084 8.107,52.793 5.758,51.853 3.442,50.93 0,51.443 0,51.443 c 0,0 7.048,-0.587 8.224,3.995 1.174,4.581 4.464,4.934 5.286,4.934 0.822,0 -3.644,0.498 -3.554,1.968 0.088,1.439 2.144,0.851 2.144,0.851 z"
           inkscape:connector-curvature="0"
           style="fill:#e492f5;fill-opacity:1;stroke:none;stroke-opacity:1" />
      </g>
    </g>
  </g>
</svg>
